<?xml version="1.0" encoding="UTF-8" standalone="no" ?>
<!DOCTYPE svg PUBLIC "-//W3C//DTD SVG 1.1//EN" "http://www.w3.org/Graphics/SVG/1.1/DTD/svg11.dtd">
<svg xmlns="http://www.w3.org/2000/svg" xmlns:xlink="http://www.w3.org/1999/xlink" version="1.1" width="640" height="480" viewBox="0 0 640 480" xml:space="preserve">
<desc>Created with Fabric.js 3.6.6</desc>
<defs>
</defs>
<g transform="matrix(22.86 0 0 22.86 321.29 240.46)"  >
<path style="stroke: none; stroke-width: 1; stroke-dasharray: none; stroke-linecap: butt; stroke-dashoffset: 0; stroke-linejoin: miter; stroke-miterlimit: 4; fill: rgb(255,255,255); fill-rule: nonzero; opacity: 1;"  transform=" translate(-12, -11.98)" d="M 10 20 h 4 c 0 1.1 -0.9 2 -2 2 S 10 21.1 10 20 z M 20 17.35 V 19 H 4 v -1.65 l 2 -1.88 v -5.15 c 0 -2.92 1.56 -5.22 4 -5.98 V 3.96 c 0 -1.42 1.49 -2.5 2.99 -1.76 C 13.64 2.52 14 3.23 14 3.96 l 0 0.39 c 2.44 0.75 4 3.06 4 5.98 v 5.15 L 20 17.35 z M 19 17.77 l -2 -1.88 v -5.47 c 0 -2.47 -1.19 -4.36 -3.13 -5.1 c -1.26 -0.53 -2.64 -0.5 -3.84 0.03 C 8.15 6.11 7 7.99 7 10.42 v 5.47 l -2 1.88 V 18 h 14 V 17.77 z" stroke-linecap="round" />
</g>
</svg>