<?xml version="1.0" encoding="UTF-8" standalone="no" ?>
<!DOCTYPE svg PUBLIC "-//W3C//DTD SVG 1.1//EN" "http://www.w3.org/Graphics/SVG/1.1/DTD/svg11.dtd">
<svg xmlns="http://www.w3.org/2000/svg" xmlns:xlink="http://www.w3.org/1999/xlink" version="1.1" width="640" height="480" viewBox="0 0 640 480" xml:space="preserve">
<desc>Created with Fabric.js 3.6.6</desc>
<defs>
</defs>
<g transform="matrix(25.37 0 0 25.37 319.36 239.49)"  >
<path style="stroke: none; stroke-width: 1; stroke-dasharray: none; stroke-linecap: butt; stroke-dashoffset: 0; stroke-linejoin: miter; stroke-miterlimit: 4; fill: rgb(255,255,255); fill-rule: nonzero; opacity: 1;"  transform=" translate(-11.94, -11.94)" d="M 20.87 20.17 l -5.59 -5.59 C 16.35 13.35 17 11.75 17 10 c 0 -3.87 -3.13 -7 -7 -7 s -7 3.13 -7 7 s 3.13 7 7 7 c 1.75 0 3.35 -0.65 4.58 -1.71 l 5.59 5.59 L 20.87 20.17 z M 10 16 c -3.31 0 -6 -2.69 -6 -6 s 2.69 -6 6 -6 s 6 2.69 6 6 S 13.31 16 10 16 z" stroke-linecap="round" />
</g>
</svg>