<?xml version="1.0" encoding="UTF-8" standalone="no" ?>
<!DOCTYPE svg PUBLIC "-//W3C//DTD SVG 1.1//EN" "http://www.w3.org/Graphics/SVG/1.1/DTD/svg11.dtd">
<svg xmlns="http://www.w3.org/2000/svg" xmlns:xlink="http://www.w3.org/1999/xlink" version="1.1" width="640" height="480" viewBox="0 0 640 480" xml:space="preserve">
<desc>Created with Fabric.js 3.6.6</desc>
<defs>
</defs>
<g transform="matrix(28.16 0 0 28.16 315.38 242.38)"  >
<path style="stroke: none; stroke-width: 1; stroke-dasharray: none; stroke-linecap: butt; stroke-dashoffset: 0; stroke-linejoin: miter; stroke-miterlimit: 4; fill: rgb(255,255,255); fill-rule: nonzero; opacity: 1;"  transform=" translate(-12, -12)" d="M 16 4 v 4 h 4 V 4 H 16 z M 19 7 h -2 V 5 h 2 V 7 z M 16 10 v 4 h 4 v -4 H 16 z M 19 13 h -2 v -2 h 2 V 13 z M 10 4 v 4 h 4 V 4 H 10 z M 13 7 h -2 V 5 h 2 V 7 z M 10 10 v 4 h 4 v -4 H 10 z M 13 13 h -2 v -2 h 2 V 13 z M 16 16 v 4 h 4 v -4 H 16 z M 19 19 h -2 v -2 h 2 V 19 z M 10 16 v 4 h 4 v -4 H 10 z M 13 19 h -2 v -2 h 2 V 19 z M 4 4 v 4 h 4 V 4 H 4 z M 7 7 H 5 V 5 h 2 V 7 z M 4 10 v 4 h 4 v -4 H 4 z M 7 13 H 5 v -2 h 2 V 13 z M 4 16 v 4 h 4 v -4 H 4 z M 7 19 H 5 v -2 h 2 V 19 z" stroke-linecap="round" />
</g>
</svg>